<?xml version="1.0" standalone="no"?>
<!DOCTYPE svg PUBLIC "-//W3C//DTD SVG 20010904//EN"
 "http://www.w3.org/TR/2001/REC-SVG-20010904/DTD/svg10.dtd">
<svg version="1.0" xmlns="http://www.w3.org/2000/svg"
 width="700.000000pt" height="700.000000pt" viewBox="0 0 700.000000 700.000000"
 preserveAspectRatio="xMidYMid meet">
<metadata>
Created by potrace 1.14, written by Peter Selinger 2001-2017
</metadata>
<g transform="translate(0.000000,700.000000) scale(0.100000,-0.100000)"
fill="#000000" stroke="none">
<path d="M1644 6980 c-85 -34 -160 -121 -179 -209 -4 -18 -7 -248 -7 -510 0
-513 1 -519 54 -594 59 -83 133 -120 238 -120 89 0 133 17 197 75 48 45 76 92
88 147 11 52 7 980 -4 1019 -48 162 -232 252 -387 192z"/>
<path d="M2829 6987 c-89 -33 -151 -93 -186 -178 -16 -40 -18 -85 -17 -544 l0
-500 24 -50 c53 -108 147 -169 266 -169 120 0 216 62 268 173 20 45 21 59 21
556 0 571 4 538 -74 626 -22 26 -62 57 -88 69 -58 27 -163 36 -214 17z"/>
<path d="M3988 6983 c-55 -18 -120 -70 -153 -122 -43 -70 -47 -115 -43 -621 3
-461 4 -476 24 -521 98 -212 383 -237 510 -44 18 28 36 72 41 100 5 28 8 259
8 515 -1 527 -1 529 -78 614 -74 82 -203 115 -309 79z"/>
<path d="M484 4939 c-71 -27 -136 -87 -165 -151 l-24 -53 -2 -1395 c-2 -1488
-2 -1484 47 -1670 22 -87 52 -166 100 -265 217 -450 660 -761 1155 -812 89 -9
2569 -10 2650 -1 95 11 240 45 334 79 540 196 925 706 957 1268 4 53 8 98 9
100 2 2 37 5 77 6 112 5 262 33 377 72 442 147 782 488 926 928 57 172 69 257
68 460 0 168 -3 199 -37 351 -25 117 -122 341 -182 421 -13 17 -24 34 -24 38
0 3 -15 25 -32 48 -184 237 -362 373 -658 501 -34 14 -162 51 -212 62 -47 9
-84 16 -113 22 -16 3 -1193 6 -2615 8 -2544 2 -2586 2 -2636 -17z m4463 -568
c8 -1 11 -303 9 -1233 l-2 -1233 -22 -80 c-67 -241 -213 -428 -433 -553 -77
-43 -226 -91 -312 -98 -136 -12 -2517 -7 -2584 5 -379 71 -667 367 -719 741
-7 53 -14 2409 -6 2440 3 13 235 15 2030 14 1115 -1 2032 -2 2039 -3z m749
-11 c400 -66 709 -425 718 -834 7 -342 -166 -638 -471 -804 -39 -21 -131 -57
-178 -68 -50 -13 -182 -30 -202 -26 l-22 4 0 866 c1 562 4 869 11 873 11 7 56
4 144 -11z"/>
</g>
</svg>
